<?xml version="1.0" encoding="UTF-8" standalone="no"?>
<!-- Created with Inkscape (http://www.inkscape.org/) -->

<svg
   xmlns:dc="http://purl.org/dc/elements/1.1/"
   xmlns:cc="http://creativecommons.org/ns#"
   xmlns:rdf="http://www.w3.org/1999/02/22-rdf-syntax-ns#"
   xmlns:svg="http://www.w3.org/2000/svg"
   xmlns="http://www.w3.org/2000/svg"
   xmlns:sodipodi="http://sodipodi.sourceforge.net/DTD/sodipodi-0.dtd"
   xmlns:inkscape="http://www.inkscape.org/namespaces/inkscape"
   width="512"
   height="512"
   id="svg2"
   version="1.1"
   inkscape:version="0.48.2 r9819"
   sodipodi:docname="singer.svg">
  <defs
     id="defs4" />
  <sodipodi:namedview
     id="base"
     pagecolor="#ffffff"
     bordercolor="#666666"
     borderopacity="1.0"
     inkscape:pageopacity="0.0"
     inkscape:pageshadow="2"
     inkscape:zoom="0.81980192"
     inkscape:cx="260.00997"
     inkscape:cy="103.09456"
     inkscape:document-units="px"
     inkscape:current-layer="layer1"
     showgrid="false"
     inkscape:window-width="1920"
     inkscape:window-height="1017"
     inkscape:window-x="-8"
     inkscape:window-y="-8"
     inkscape:window-maximized="1" />
  <metadata
     id="metadata7">
    <rdf:RDF>
      <cc:Work
         rdf:about="">
        <dc:format>image/svg+xml</dc:format>
        <dc:type
           rdf:resource="http://purl.org/dc/dcmitype/StillImage" />
        <dc:title></dc:title>
      </cc:Work>
    </rdf:RDF>
  </metadata>
  <g
     inkscape:label="Layer 1"
     inkscape:groupmode="layer"
     id="layer1"
     transform="translate(0,-540.36218)">
    <path
       style="fill:#000000"
       d="m 99.598485,1010.7285 c -8.739348,-2.1185 -15.583131,-6.0703 -22.511839,-12.99904 -18.843221,-18.8432 -18.779221,-48.1128 0.146585,-67.0386 19.048452,-19.0484 48.148719,-18.9654 67.359899,0.1922 18.74383,18.6916 18.73146,48.0868 -0.0281,66.8464 -12.32872,12.32874 -28.47572,16.99654 -44.966515,12.99904 z"
       id="path3875" />
    <path
       style="fill:#000000"
       d="m 355.59848,1010.7285 c -8.73935,-2.1185 -15.58313,-6.0703 -22.51184,-12.99904 -18.84322,-18.8432 -18.77922,-48.1128 0.14659,-67.0386 18.99617,-18.9961 48.18901,-18.9961 67.18518,0 18.92581,18.9258 18.98981,48.1954 0.14659,67.0386 -12.32872,12.32874 -28.47573,16.99654 -44.96652,12.99904 z"
       id="path3873" />
    <path
       style="fill:#000000"
       d="m 87.795203,898.74756 c -13.805124,-4.2557 -20.67619,-20.3894 -14.116177,-33.1457 2.296585,-4.4658 6.239238,-8.3404 11.146798,-10.9542 3.356395,-1.7877 8.889354,-1.875 134.851406,-2.1287 103.78637,-0.2091 131.24277,-0.5238 130.83374,-1.5 -19.54005,-46.6345 -23.02729,-55.6769 -23.42301,-60.7355 -0.36491,-4.6648 2.54723,-17.3953 19.17868,-83.83963 20.10578,-80.32465 20.75489,-82.4445 26.62517,-86.95197 5.74341,-4.41005 70.66761,-38.07234 74.64716,-38.70351 2.76542,-0.4386 6.14201,-0.10748 9.82648,0.96363 17.1853,4.9959 22.85822,27.41831 10.00156,39.5315 -1.45939,1.375 -15.3214,9.28525 -30.80446,17.57832 l -28.15103,15.07833 -16.26326,64.92167 c -8.94479,35.70696 -16.27658,65.69796 -16.29285,66.64676 -0.0163,0.9488 7.79725,20.1354 17.36339,42.6368 9.56613,22.5014 17.70288,42.7461 18.08167,44.9881 1.09479,6.48 -1.71192,14.4399 -6.93228,19.6603 -8.03529,8.0353 3.7909,7.4985 -163.47387,7.4201 -124.19933,-0.058 -149.311638,-0.2988 -153.099117,-1.4663 z"
       id="path3871" />
    <path
       style="fill:#f5b611;fill-opacity:1"
       d="m 174.21204,816.37966 c -51.21257,-10.9351 -95.08757,-20.7677 -97.499993,-21.8501 -2.412423,-1.0824 -6.08041,-3.6338 -8.151084,-5.6696 -7.511679,-7.3855 -7.758509,-8.3342 -19.826262,-76.20753 -6.778228,-38.12315 -11.154474,-65.32771 -11.11825,-69.11565 0.110203,-11.52385 7.326265,-22.70788 18.048829,-27.97352 l 5.660544,-2.77978 127.999996,0 128,0 5.21376,2.35756 c 6.20701,2.80668 13.61526,10.37134 16.46418,16.8118 4.55212,10.29082 4.89762,8.30462 -17.19322,98.84075 -11.13726,45.64447 -21.09314,84.80367 -22.12419,87.02057 -3.10053,6.6666 -7.56314,11.1976 -14.29043,14.5094 -11.43308,5.6285 -7.53743,6.1872 -111.18388,-15.9439 z"
       id="path3869" />
    <path
       style="fill:#ffffff"
       d="m 290.60813,724.60916 c 10.56131,-43.27088 19.054,-78.8227 18.87265,-79.00405 -0.18135,-0.18135 -54.32503,-0.2154 -120.31929,-0.0757 l -119.989561,0.25405 10.490717,59.5 c 5.769894,32.725 10.555408,59.6009 10.634476,59.7242 0.247128,0.3854 176.916598,38.0307 179.068658,38.1566 1.8862,0.1102 3.48744,-5.8112 21.24235,-78.55512 z"
       id="path3865" />
  </g>
</svg>
