<?xml version="1.0" encoding="UTF-8" standalone="no"?>
<!-- Created with Inkscape (http://www.inkscape.org/) -->

<svg
   xmlns:dc="http://purl.org/dc/elements/1.1/"
   xmlns:cc="http://creativecommons.org/ns#"
   xmlns:rdf="http://www.w3.org/1999/02/22-rdf-syntax-ns#"
   xmlns:svg="http://www.w3.org/2000/svg"
   xmlns="http://www.w3.org/2000/svg"
   xmlns:sodipodi="http://sodipodi.sourceforge.net/DTD/sodipodi-0.dtd"
   xmlns:inkscape="http://www.inkscape.org/namespaces/inkscape"
   width="512"
   height="512"
   id="svg2"
   version="1.1"
   inkscape:version="0.48.2 r9819"
   sodipodi:docname="repro.svg">
  <defs
     id="defs4" />
  <sodipodi:namedview
     id="base"
     pagecolor="#ffffff"
     bordercolor="#666666"
     borderopacity="1.0"
     inkscape:pageopacity="0.0"
     inkscape:pageshadow="2"
     inkscape:zoom="0.81980192"
     inkscape:cx="260.00997"
     inkscape:cy="103.09456"
     inkscape:document-units="px"
     inkscape:current-layer="layer1"
     showgrid="false"
     inkscape:window-width="1920"
     inkscape:window-height="1017"
     inkscape:window-x="-8"
     inkscape:window-y="-8"
     inkscape:window-maximized="1" />
  <metadata
     id="metadata7">
    <rdf:RDF>
      <cc:Work
         rdf:about="">
        <dc:format>image/svg+xml</dc:format>
        <dc:type
           rdf:resource="http://purl.org/dc/dcmitype/StillImage" />
        <dc:title></dc:title>
      </cc:Work>
    </rdf:RDF>
  </metadata>
  <g
     inkscape:label="Layer 1"
     inkscape:groupmode="layer"
     id="layer1"
     transform="translate(0,-540.36218)">
    <path
       style="fill:#000000"
       d="m 104.96189,986.11217 c -3.25955,-1.6437 -5.0682,-3.45229 -6.71189,-6.7119 l -2.25,-4.4619 0,-81.2881 0,-81.28809 16,0 16,0 0,81.28809 0,81.2881 -2.25,4.4619 c -2.42203,4.80311 -8.80285,8.9619 -13.75,8.9619 -1.41692,0 -4.58407,-1.0125 -7.03811,-2.25 z"
       id="path3937" />
    <path
       style="fill:#000000"
       d="m 248.96189,986.11217 c -3.25955,-1.6437 -5.0682,-3.45229 -6.71189,-6.7119 -2.07451,-4.1139 -2.25,-5.8103 -2.25,-21.75 l 0,-17.2881 16,0 16,0 0,17.2881 c 0,15.9397 -0.17549,17.6361 -2.25,21.75 -2.42203,4.80311 -8.80285,8.9619 -13.75,8.9619 -1.41692,0 -4.58407,-1.0125 -7.03811,-2.25 z"
       id="path3935" />
    <path
       style="fill:#000000"
       d="m 392.96189,986.11217 c -3.25955,-1.6437 -5.0682,-3.45229 -6.71189,-6.7119 l -2.25,-4.4619 0,-105.28808 0,-105.28811 16,0 16,0 0,105.28811 0,105.28808 -2.25,4.4619 c -2.42203,4.80311 -8.80285,8.9619 -13.75,8.9619 -1.41692,0 -4.58407,-1.0125 -7.03811,-2.25 z"
       id="path3933" />
    <path
       style="fill:#f5b611;fill-opacity:1"
       d="M 216.96189,922.11217 C 210.26241,918.73388 208,913.56828 208,901.65027 l 0,-9.2881 48,0 48,0 0,9.2881 c 0,11.918 -2.26241,17.0836 -8.96189,20.4619 -4.37051,2.2039 -5.17,2.25 -39.03811,2.25 -33.86811,0 -34.6676,-0.046 -39.03811,-2.25 z"
       id="path3931" />
    <path
       style="fill:#f5b611;fill-opacity:1"
       d="m 208,867.07407 c 0,-11.91797 2.26241,-17.08353 8.96189,-20.46189 4.37051,-2.20392 5.17,-2.25 39.03811,-2.25 33.86811,0 34.6676,0.0461 39.03811,2.25 6.69948,3.37835 8.96189,8.54391 8.96189,20.46189 l 0,9.28811 -48,0 -48,0 0,-9.28811 z"
       id="path3929" />
    <path
       style="fill:#000000"
       d="m 240,723.07407 0,-105.2881 2.25,-4.4619 c 2.42203,-4.80304 8.80285,-8.96189 13.75,-8.96189 4.94715,0 11.32797,4.15885 13.75,8.96189 l 2.25,4.4619 0,105.2881 0,105.28811 -16,0 -16,0 0,-105.28811 z"
       id="path3927" />
    <path
       style="fill:#f5b611;fill-opacity:1"
       d="M 72.96189,794.11219 C 66.26241,790.73383 64,785.56827 64,773.6503 l 0,-9.28811 48,0 48,0 0,9.28811 c 0,11.91798 -2.26241,17.08353 -8.96189,20.46189 -4.37051,2.20392 -5.17,2.25 -39.03811,2.25 -33.86811,0 -34.6676,-0.0461 -39.03811,-2.25 z"
       id="path3925" />
    <path
       style="fill:#f5b611;fill-opacity:1"
       d="m 64,739.07407 c 0,-11.91797 2.26241,-17.08353 8.96189,-20.46189 4.37051,-2.20392 5.17,-2.25 39.03811,-2.25 33.86811,0 34.6676,0.0461 39.03811,2.25 6.69948,3.37835 8.96189,8.54391 8.96189,20.46189 l 0,9.28811 -48,0 -48,0 0,-9.28811 z"
       id="path3923" />
    <path
       style="fill:#f5b611;fill-opacity:1"
       d="M 360.96189,746.11218 C 354.26241,742.73383 352,737.56827 352,725.6503 l 0,-9.28811 48,0 48,0 0,9.28811 c 0,11.91798 -2.26241,17.08353 -8.96189,20.46189 -4.37051,2.20392 -5.17,2.25 -39.03811,2.25 -33.86811,0 -34.6676,-0.0461 -39.03811,-2.25 z"
       id="path3921" />
    <path
       style="fill:#000000"
       d="m 96,659.07407 c 0,-40.82858 0.025,-41.33776 2.25,-45.75 2.42203,-4.80304 8.80285,-8.96189 13.75,-8.96189 4.94715,0 11.32797,4.15885 13.75,8.96189 2.22496,4.41224 2.25,4.92142 2.25,45.75 l 0,41.28811 -16,0 -16,0 0,-41.28811 z"
       id="path3919" />
    <path
       style="fill:#f5b611;fill-opacity:1"
       d="m 352,691.07407 c 0,-11.91797 2.26241,-17.08353 8.96189,-20.46189 4.37051,-2.20392 5.17,-2.25 39.03811,-2.25 33.86811,0 34.6676,0.0461 39.03811,2.25 6.69948,3.37835 8.96189,8.54391 8.96189,20.46189 l 0,9.28811 -48,0 -48,0 0,-9.28811 z"
       id="path3917" />
    <path
       style="fill:#000000"
       d="m 384,635.07407 c 0,-15.9397 0.17549,-17.63612 2.25,-21.75 2.42203,-4.80304 8.80285,-8.96189 13.75,-8.96189 4.94715,0 11.32797,4.15885 13.75,8.96189 2.07451,4.11388 2.25,5.8103 2.25,21.75 l 0,17.28811 -16,0 -16,0 0,-17.28811 z"
       id="path3913" />
  </g>
</svg>
