<?xml version="1.0" encoding="UTF-8" standalone="no"?>
<!-- Created with Inkscape (http://www.inkscape.org/) -->

<svg
   xmlns:dc="http://purl.org/dc/elements/1.1/"
   xmlns:cc="http://creativecommons.org/ns#"
   xmlns:rdf="http://www.w3.org/1999/02/22-rdf-syntax-ns#"
   xmlns:svg="http://www.w3.org/2000/svg"
   xmlns="http://www.w3.org/2000/svg"
   xmlns:sodipodi="http://sodipodi.sourceforge.net/DTD/sodipodi-0.dtd"
   xmlns:inkscape="http://www.inkscape.org/namespaces/inkscape"
   width="512"
   height="512"
   id="svg2"
   version="1.1"
   inkscape:version="0.48.2 r9819"
   sodipodi:docname="ekvalizer.svg">
  <defs
     id="defs4" />
  <sodipodi:namedview
     id="base"
     pagecolor="#ffffff"
     bordercolor="#666666"
     borderopacity="1.0"
     inkscape:pageopacity="0.0"
     inkscape:pageshadow="2"
     inkscape:zoom="1"
     inkscape:cx="101.95051"
     inkscape:cy="153.48383"
     inkscape:document-units="px"
     inkscape:current-layer="layer1"
     showgrid="false"
     inkscape:window-width="1920"
     inkscape:window-height="1017"
     inkscape:window-x="-8"
     inkscape:window-y="-8"
     inkscape:window-maximized="1" />
  <metadata
     id="metadata7">
    <rdf:RDF>
      <cc:Work
         rdf:about="">
        <dc:format>image/svg+xml</dc:format>
        <dc:type
           rdf:resource="http://purl.org/dc/dcmitype/StillImage" />
        <dc:title></dc:title>
      </cc:Work>
    </rdf:RDF>
  </metadata>
  <g
     inkscape:label="Layer 1"
     inkscape:groupmode="layer"
     id="layer1"
     transform="translate(0,-540.36218)">
    <path
       style="fill:#000000"
       d="m 353.83042,976.64202 c -4.41303,-1.85289 -16.55798,-7.47298 -26.98878,-12.4891 -10.4308,-5.01597 -23.88872,-11.44061 -29.90648,-14.27662 -6.01777,-2.83616 -11.17778,-5.3572 -11.4667,-5.60244 -0.28892,-0.24508 28.15604,-67.50155 63.21101,-149.45878 35.05496,-81.95719 63.45979,-149.28958 63.12183,-149.62754 -0.33794,-0.33796 -29.08474,65.996 -63.88175,147.40877 -34.79702,81.41278 -63.48134,147.80911 -63.74294,147.54754 -0.43014,-0.43007 5.93459,-17.46859 43.64401,-116.83618 63.97945,-168.59131 69.63864,-183.70907 69.00645,-184.34126 -0.34169,-0.34168 -0.95577,0.29333 -1.36463,1.41113 -0.40887,1.11781 -13.93872,36.82602 -30.06636,79.35158 -16.12763,42.52556 -41.02227,108.17394 -55.3214,145.8853 -14.29915,37.71134 -26.71386,70.4089 -27.58827,72.66123 -0.98185,2.52921 -1.03362,3.75158 -0.13538,3.19634 0.79995,-0.4944 1.45445,-0.20365 1.45445,0.64613 0,1.74274 -8.60611,2.07449 -11.1185,0.42846 -1.1444,-0.7497 5.32166,-30.22291 21.51876,-98.08553 12.7351,-53.35756 29.47821,-123.60132 37.20689,-156.09727 7.72868,-32.49595 14.38984,-60.06827 14.80255,-61.27182 0.5041,-1.47006 0.26416,-1.70947 -0.73108,-0.72943 -0.8148,0.80237 -18.13923,71.55316 -38.49873,157.22396 -20.3595,85.67083 -37.19421,155.23433 -37.41046,154.58558 -0.21625,-0.64876 7.47697,-44.15539 17.09603,-96.68154 9.61907,-52.52615 22.59254,-123.40262 28.82996,-157.50331 11.13363,-60.86891 11.35781,-61.81025 12.27516,-51.54368 1.51544,16.95987 3.04311,17.21952 10.79106,1.83413 7.235,-14.36678 9.95183,-13.81123 8.59377,1.75729 -1.25226,14.3558 -0.16527,14.52956 8.51337,1.36095 9.04959,-13.73145 10.32388,-13.41243 9.15165,2.29107 l -0.96557,12.93491 3.00455,-3.64714 c 1.6525,-2.00592 5.14,-6.7485 7.75001,-10.53907 5.08468,-7.38461 9.26983,-9.32942 7.92943,-3.68474 -0.4287,1.80533 -1.19836,7.22132 -1.71036,12.03553 l -0.93092,8.75312 4.10521,-4.42636 c 2.25785,-2.43449 6.27924,-6.9347 8.93641,-10.00045 2.65717,-3.06575 5.17611,-5.22922 5.59763,-4.80768 0.42154,0.42152 -0.18985,5.41409 -1.35864,11.09459 -1.16879,5.68049 -1.73731,10.32818 -1.26338,10.32818 0.47393,0 4.6555,-3.75423 9.29239,-8.34274 9.28254,-9.18567 10.19422,-8.51607 6.22404,4.57143 -1.19631,3.94354 -1.9653,7.37989 -1.70886,7.63632 0.25642,0.25644 4.13758,-2.80598 8.6248,-6.80537 8.35949,-7.45068 14.25582,-9.40235 14.25582,-4.71862 0,1.62843 1.18873,2.60989 3.28242,2.7101 5.58996,0.26755 55.44338,24.6401 60.54239,29.5982 6.6237,6.44067 6.24109,11.42522 -2.45612,31.99783 -5.28935,12.51156 -7.85111,21.08575 -9.6633,32.34287 -11.4097,70.87625 -42.49411,142.56379 -79.08689,182.39193 -7.02112,7.64191 -10.39886,13.18978 -17.13688,28.14681 -6.56598,14.57511 -9.28611,19.09114 -12.50034,20.75335 -5.75242,2.9746 -12.4143,2.55591 -21.75933,-1.36796 z M 300.36203,852.48474 c 51.17332,-178.09155 63.80741,-222.8343 63.11708,-223.52464 -0.38709,-0.3871 -1.45951,2.15252 -2.38313,5.64358 -0.92362,3.49107 -8.47383,29.9808 -16.77825,58.86609 -33.74917,117.39 -69.12062,241.09557 -70.09661,245.15075 -0.57093,2.37209 -0.67619,3.98485 -0.23389,3.58367 0.44229,-0.40118 12.31095,-40.77494 26.3748,-89.71945 z m 29.2514,-63.0954 c 27.9969,-84.04816 51.24021,-153.79956 51.65176,-155.00311 0.41158,-1.20356 0.19724,-1.68711 -0.4763,-1.07455 -1.60768,1.46215 -104.05971,308.89251 -102.93928,308.89251 0.47319,0 23.76692,-68.76668 51.76382,-152.81485 z m 104.73113,74.12929 c 4.21542,-7.60923 9.80075,-19.11316 12.41186,-25.56421 4.45204,-10.99915 10.17536,-32.38703 8.98517,-33.57722 -0.29514,-0.29514 -4.26694,8.11062 -8.82624,18.67947 -4.55928,10.56885 -12.58656,29.06336 -17.83837,41.09889 -10.53118,24.13424 -8.30607,23.86508 5.26758,-0.63693 z m -12.74532,-1.17117 c 1.63539,-4.26175 -0.63872,-7.87693 -4.65153,-7.39463 -5.43657,0.65356 -7.49933,4.64382 -4.25424,8.22968 2.85904,3.15914 7.54151,2.72018 8.90577,-0.83505 z m -16.12669,-9.58948 c 2.28141,-3.7564 -3.89276,-8.97019 -8.01202,-6.76557 -2.72357,1.45754 -3.80244,7.17405 -1.74268,9.23381 1.84104,1.84107 8.09928,0.25763 9.7547,-2.46824 z m 25.02492,-11.30012 c 3.57454,-3.9497 1.25687,-7.93822 -4.61284,-7.93822 -3.36309,0 -4.31952,0.72234 -4.72082,3.56539 -0.30935,2.19169 0.50071,4.29944 2.1024,5.47076 3.4474,2.52075 4.03755,2.43118 7.23126,-1.09793 z m -15.39523,-12.31478 c 0,-5.32919 -4.97227,-7.42798 -8.71968,-3.68057 -3.7452,3.7452 -3.71054,5.1715 0.19211,7.90503 4.08319,2.85996 8.52757,0.65828 8.52757,-4.22446 z m 25.37782,-9.7081 c 2.85996,-4.08318 0.65828,-8.52756 -4.22446,-8.52756 -4.88273,0 -7.08442,4.44438 -4.22446,8.52756 1.21089,1.7288 3.1119,3.14326 4.22446,3.14326 1.11257,0 3.01357,-1.41446 4.22446,-3.14326 z m -17.47433,-7.52985 c 5.19889,-3.80152 -0.62824,-12.29079 -6.07993,-8.85757 -3.47952,2.19124 -3.90624,5.56877 -1.0628,8.41221 2.86465,2.86465 3.75799,2.92035 7.14273,0.44536 z m 26.34821,-13.57504 c 2.84344,-2.84343 2.41672,-6.22097 -1.0628,-8.41221 -5.05478,-3.18326 -10.74677,3.98983 -6.87139,8.65937 2.29634,2.76692 5.00448,2.68256 7.93419,-0.24716 z m -16.16814,-9.53102 c 2.85996,-4.08318 0.65827,-8.52756 -4.22446,-8.52756 -4.88274,0 -7.08443,4.44438 -4.22446,8.52756 1.21089,1.7288 3.11189,3.14326 4.22446,3.14326 1.11256,0 3.01356,-1.41446 4.22446,-3.14326 z M 152.76906,970.45021 c -10.24916,-13.68944 -14.99522,-15.67859 -28.74334,-12.04633 -11.94861,3.15681 -22.27892,3.45252 -25.851683,0.74022 -2.94115,-2.23292 -5.54751,-8.45172 -52.31703,-124.82723 -23.710364,-58.99798 -34.857006,-88.46917 -34.857006,-92.16022 0,-6.76473 4.752359,-11.86496 17.274916,-18.5394 9.53906,-5.08428 13.36099,-9.1757 13.36099,-14.30313 0,-1.76053 0.8206,-3.5354 1.82356,-3.94417 1.27134,-0.51814 0.88454,-1.54898 -1.27724,-3.40399 -2.48733,-2.13436 -3.28115,-4.94227 -4.01229,-14.19234 l -0.9115,-11.53156 5.66256,-5.38666 c 4.09697,-3.89735 12.46957,-8.27181 30.28282,-15.82193 13.54116,-5.7394 25.69386,-10.43527 27.006013,-10.43527 1.31216,0 2.74406,-0.93377 3.182,-2.07505 1.58242,-4.12371 7.06253,-0.34611 14.92909,10.29106 4.37212,5.91198 8.6011,10.74907 9.39774,10.74907 2.05766,0 1.79714,-4.79793 -0.80603,-14.84391 -1.23996,-4.78511 -1.82611,-10.04984 -1.30257,-11.69938 0.63578,-2.00313 0.41551,-2.66764 -0.66325,-2.00093 -0.88833,0.54901 -1.61514,0.66996 -1.61514,0.26878 0,-0.40118 0.61585,-1.11004 1.36858,-1.57524 0.75271,-0.46521 4.26362,3.59908 7.80204,9.03173 3.53842,5.43265 7.93648,11.19052 9.77347,12.79526 l 3.33997,2.91771 -0.91749,-10.21197 c -0.50461,-5.61659 -1.32589,-12.34554 -1.82506,-14.95324 -1.35863,-7.09757 1.44686,-5.82315 6.42296,2.9177 2.39812,4.21244 6.38029,9.56854 8.84928,11.90246 3.96655,3.74957 4.60228,3.94846 5.46176,1.70868 0.53499,-1.39414 0.53902,-7.73497 0.009,-14.09074 -0.61,-7.31702 -0.43265,-11.55593 0.4837,-11.55593 0.79595,0 1.09668,0.91344 0.66826,2.02989 -0.42842,1.11643 5.22307,27.21166 12.55887,57.9894 23.57701,98.91867 25.95811,108.88915 41.58397,174.1266 8.45618,35.30424 16.41161,68.78491 17.67873,74.4015 1.26712,5.61658 2.96386,10.86845 3.77054,11.67082 0.98151,0.97626 1.17728,0.49368 0.59179,-1.45885 -0.48118,-1.60474 -5.72986,-23.26871 -11.66373,-48.14215 -5.93387,-24.87344 -22.38388,-93.80425 -36.55557,-153.17956 -14.17169,-59.37531 -26.14684,-109.59632 -26.61146,-111.60224 -0.52203,-2.2538 1.3576,-0.30314 4.92004,5.10598 3.17066,4.81422 6.8628,9.65411 8.20476,10.75531 2.24616,1.84317 2.45159,0.97412 2.58643,-10.9414 l 0.14649,-12.94358 1.85858,8.75311 c 1.02223,4.81422 14.90173,77.19155 30.84335,160.83853 15.94162,83.64699 29.46138,152.08542 30.04391,152.08542 0.58254,0 0.77811,-0.8206 0.43464,-1.82356 -0.34347,-1.00296 -5.54283,-27.75468 -11.55409,-59.44826 -6.01126,-31.69357 -19.5055,-102.56472 -29.98718,-157.49142 -10.48169,-54.9267 -18.86357,-100.44884 -18.6264,-101.16033 0.23716,-0.71149 2.98347,3.36243 6.10289,9.05313 6.57906,12.00206 9.51684,13.26567 9.64049,4.14662 0.0462,-3.41007 0.54246,-8.78126 1.1027,-11.93599 0.78315,-4.40977 2.64737,6.21441 8.06357,45.95387 14.84323,108.90707 28.95922,211.90883 33.05622,241.20523 2.34596,16.77534 3.94972,31.01141 3.5639,31.63566 -1.17037,1.89373 -16.80508,7.26246 -18.35673,6.30355 -0.79668,-0.49236 -2.22544,0.0627 -3.175,1.23507 -2.46369,3.03996 -54.338,21.87054 -62.37644,22.643 -6.05149,0.5815 -7.02862,0.23108 -9.8441,-3.5294 z m 72.91848,-50.3758 c -14.19438,-40.93074 -28.89928,-83.1265 -57.87142,-166.06225 -14.9957,-42.92675 -30.28582,-86.84573 -33.97801,-97.59772 -3.69221,-10.75201 -6.91839,-18.93324 -7.1693,-18.18052 -0.25091,0.75273 1.13272,5.93915 3.07473,11.52541 1.94201,5.58625 8.45964,24.27122 14.48361,41.52216 6.02397,17.25093 25.50965,73.05205 43.30151,124.00249 17.79186,50.95045 35.36932,101.31982 39.06102,111.93196 3.69169,10.61213 6.97171,19.03525 7.28894,18.7181 0.31723,-0.3173 -3.36875,-11.95413 -8.19108,-25.85963 z m -12.70785,-58.30772 c -13.35189,-45.2235 -30.79015,-104.21681 -38.7517,-131.09618 -7.96154,-26.87936 -17.89754,-60.56365 -22.07998,-74.85397 -4.18246,-14.29032 -7.81489,-25.35113 -8.07208,-24.57955 -0.25718,0.77155 4.4552,18.04374 10.47199,38.38265 32.39541,109.50804 48.88279,165.32114 64.48855,218.30662 9.52235,32.3308 17.51722,58.17175 17.76638,57.42424 0.24915,-0.74752 -10.47126,-38.3601 -23.82316,-83.58381 z M 107.06057,939.6512 c 0.7619,-1.45404 0.80424,-3.96604 0.0983,-5.83541 -2.12756,-5.63439 -11.545453,-3.55187 -11.545453,2.55299 0,5.58565 8.902503,8.13836 11.447113,3.28242 z m 12.81871,-15.66414 c 1.28895,-3.35887 -2.22264,-8.04222 -6.03016,-8.04222 -6.51043,0 -8.01362,9.86389 -1.84028,12.07594 2.36082,0.84599 6.88837,-1.47446 7.87044,-4.03372 z m -20.141993,-4.84019 c 0.570693,-4.0257 -2.04652,-7.57859 -5.58268,-7.57859 -3.84682,0 -6.29663,3.79914 -5.21884,8.09342 0.80262,3.19781 1.6382,3.68755 5.63361,3.30139 3.62049,-0.34998 4.80002,-1.22092 5.16791,-3.81622 z m 11.964083,-13.48972 c 1.85222,-3.46098 1.82087,-3.68987 -0.87416,-6.38496 -3.47293,-3.47294 -7.7501,-2.80158 -9.72187,1.52611 -1.530113,3.35828 -1.341923,4.14066 1.56143,6.4916 3.66328,2.96643 6.88481,2.38421 9.0346,-1.63275 z m -19.735043,-7.23751 c 0,-1.82065 -1.14885,-4.0349 -2.55299,-4.92057 -5.70502,-3.59869 -11.53457,6.3253 -6.06501,10.32474 3.46071,2.53053 8.618,-0.70345 8.618,-5.40417 z M 103.01466,888.1197 c 2.72145,-2.72149 2.81365,-3.34296 0.91984,-6.20012 -2.52976,-3.81665 -6.231353,-4.78577 -9.120553,-2.38785 -2.77259,2.30104 -2.69498,6.4509 0.17429,9.32017 3.02011,3.02012 4.40003,2.89422 8.026423,-0.7322 z m -18.147853,-6.43938 c 1.15375,-3.00655 -2.13219,-8.04221 -5.24786,-8.04221 -2.88633,0 -7.34713,3.60628 -7.34713,5.93957 0,0.74504 1.32801,2.68268 2.95114,4.3058 2.37997,2.37998 3.5253,2.64388 5.91781,1.36345 1.63168,-0.87327 3.3084,-2.47816 3.72604,-3.56661 z m 9.87694,-11.40633 c 3.17194,-2.31943 2.63994,-8.08569 -0.95385,-10.3386 -5.71506,-3.5825 -11.53021,6.33857 -6.05984,10.3386 1.43311,1.0479 3.01118,1.90526 3.50684,1.90526 0.49566,0 2.07373,-0.85736 3.50685,-1.90526 z m -19.53052,-5.11488 c 5.57868,-4.51734 0.49573,-12.27333 -6.3275,-9.65498 -3.66981,1.40823 -4.50801,6.30005 -1.62529,9.48531 3.13964,3.4693 3.85896,3.48462 7.95279,0.16967 z m 11.74302,-13.45515 c 3.78621,-2.02634 3.66045,-8.15032 -0.2099,-10.2216 -3.70658,-1.98374 -6.47847,-1.05854 -8.57712,2.86286 -1.28043,2.39252 -1.01656,3.53786 1.36341,5.91783 3.40983,3.40978 3.65563,3.45748 7.42361,1.44091 z m -18.10235,-6.66871 c 1.79147,-2.70281 1.70136,-3.48695 -0.74846,-6.51232 -2.46256,-3.04115 -3.22739,-3.23801 -6.60365,-1.69969 -4.36014,1.98665 -4.99333,6.25453 -1.45315,9.79472 2.96654,2.96658 6.17194,2.39033 8.80526,-1.58271 z m 11.3374,-13.07867 c 3.08082,-3.08081 2.88615,-5.47117 -0.71062,-8.72619 -2.24173,-2.02875 -3.60398,-2.33874 -5.3732,-1.22275 -4.67418,2.9484 -5.55326,6.02184 -2.64236,9.23832 3.25502,3.59677 5.64538,3.79144 8.72618,0.71062 z m -19.88208,-3.8347 c 3.03799,-3.03799 2.06392,-8.38115 -1.85331,-10.16595 -4.46213,-2.03309 -8.06689,0.4058 -8.06689,5.45787 0,5.1749 6.41083,8.21746 9.9202,4.70808 z m 12.7693,-15.84101 c 2.91089,-3.21648 2.03182,-6.28992 -2.64238,-9.23832 -1.76921,-1.11599 -3.13145,-0.806 -5.37319,1.22276 -3.59677,3.25502 -3.79144,5.64538 -0.71062,8.72618 3.08081,3.08082 5.47117,2.88615 8.72619,-0.71062 z m -21.13474,-2.88363 c 3.7247,-1.9934 3.66661,-8.147 -0.0958,-10.16064 -5.91893,-3.16773 -11.65691,3.12325 -7.83092,8.58564 2.42995,3.46922 3.85745,3.75287 7.92682,1.575 z m 13.6111,-16.22161 c 1.51013,-2.15602 1.77795,-3.93489 0.85267,-5.66378 -2.93775,-5.48922 -9.61415,-4.90925 -11.08804,0.96321 -1.77185,7.0596 6.06285,10.65768 10.23537,4.70057 z m -20.37605,-3.52578 c 2.92099,-2.92098 2.89237,-4.83861 -0.12196,-8.16933 -3.29801,-3.64426 -5.82556,-3.34842 -8.68566,1.01664 -2.26069,3.45028 -2.24847,3.86763 0.19249,6.56484 3.14711,3.47753 5.5607,3.64222 8.61508,0.58785 z m 12.21269,-14.04667 c 2.58654,-2.58655 2.12515,-8.16243 -0.80237,-9.69648 -1.454,-0.7619 -3.96599,-0.80424 -5.83541,-0.0983 -5.63435,2.12755 -3.55181,11.54543 2.55299,11.54543 1.28379,0 3.12195,-0.78778 4.08479,-1.75062 z m -19.50695,-4.91842 c 3.27612,-3.27612 2.84015,-6.03452 -1.39202,-8.80756 -3.45028,-2.2607 -3.86764,-2.24847 -6.56484,0.19248 -1.58418,1.43366 -2.88032,3.44275 -2.88032,4.46463 0,2.45302 4.06539,6.44294 6.56483,6.44294 1.08893,0 3.01149,-1.03162 4.27235,-2.29249 z m 13.07743,-15.57846 c 2.1892,-3.49231 -0.47704,-7.52458 -5.36326,-8.11112 -5.18305,-0.62219 -7.60309,3.87734 -4.48201,8.33329 2.60831,3.72391 7.43996,3.61487 9.84527,-0.22217 z m -19.96303,-4.99905 c 1.88998,-2.86105 1.78761,-3.48557 -1.03388,-6.30706 -2.82463,-2.82463 -3.44283,-2.92528 -6.30706,-1.02677 -3.847518,2.55025 -4.781723,6.23616 -2.329465,9.19095 2.437595,2.93712 7.094115,2.04287 9.670405,-1.85712 z m 217.794043,192.6176 c 0,-0.89354 -20.99434,-154.44778 -36.50007,-266.96449 -3.99603,-28.99704 -7.2313,-53.94342 -7.18951,-55.43641 0.0419,-1.49299 1.65579,1.5415 3.58661,6.74331 3.55811,9.58591 7.47005,14.27607 9.88939,11.85674 0.71971,-0.71971 1.7833,-6.13815 2.36353,-12.04099 0.90818,-9.23919 1.18917,-10.02203 2.01956,-5.62646 0.53054,2.80829 6.59257,72.72381 13.47119,155.36783 12.91756,155.19978 14.06861,167.87575 14.89486,164.03328 0.39757,-1.84895 -14.50772,-183.70896 -23.72156,-289.42781 -2.98933,-34.29934 -2.83979,-36.04058 1.9477,-22.67904 2.51198,7.01074 4.70648,10.9414 6.10863,10.9414 2.42162,0 5.08686,-7.58688 6.56494,-18.68777 1.21109,-9.09569 3.56963,-8.24548 6.7385,2.42907 2.7531,9.27408 6.60168,16.0221 8.47688,14.86318 0.67551,-0.4175 2.39466,-5.19791 3.82034,-10.62317 4.76639,-18.13803 6.53251,-18.84479 9.2395,-3.69743 2.03195,11.37007 3.41423,14.2754 6.27041,13.17938 1.82892,-0.70183 5.26335,-9.90325 7.66799,-20.54383 1.56273,-6.91515 4.40672,-3.5534 5.43283,6.42193 1.0557,10.26287 3.29444,17.38807 5.46335,17.38807 0.76607,0 2.85013,-4.61745 4.63126,-10.26098 3.65365,-11.57664 6.53172,-15.12066 5.14521,-6.33575 -0.49092,3.11043 -9.74318,73.92964 -20.56061,157.37603 -10.8174,83.44639 -19.98161,153.48358 -20.3649,155.63831 -0.56262,3.16294 -0.0751,4.0381 2.53024,4.54258 1.7749,0.34385 -0.21944,0.7144 -4.43188,0.82366 l -7.65898,0.1987 0,-8.68076 c 0,-15.51592 -8.74174,-312.90793 -9.28618,-315.91401 -1.42089,-7.8452 -0.54244,35.83704 3.44718,171.41521 2.39652,81.44047 4.36245,149.55066 4.36873,151.35599 0.007,1.9502 -0.87671,3.28242 -2.17686,3.28242 -1.20355,0 -2.18828,-0.42219 -2.18828,-0.93819 z m 10.22621,-10.36792 c 0.007,-4.61362 1.96633,-77.93192 4.35224,-162.92957 2.38589,-84.99762 4.07849,-154.80065 3.7613,-155.11785 -1.40261,-1.40262 -2.41681,26.73787 -5.90244,163.77372 -2.0409,80.23692 -3.91077,149.66008 -4.15525,154.2737 -0.24451,4.61363 0.0897,8.38841 0.74268,8.38841 0.65298,0 1.19364,-3.77478 1.20147,-8.38841 z m 6.40328,-28.08291 c 4.62852,-63.16191 21.24054,-276.66523 22.07744,-283.7469 0.51725,-4.37683 0.33569,-6.71078 -0.45395,-5.83541 -0.7238,0.80237 -6.70803,71.70262 -13.29831,157.55611 -6.59026,85.8535 -12.2837,159.05144 -12.65206,162.66211 -0.48473,4.75104 -0.29705,5.75867 0.67933,3.64713 0.742,-1.60474 2.3834,-17.03211 3.64755,-34.28304 z m 0.99192,32.88575 c -0.0633,-1.57075 9.09249,-73.37782 20.3463,-159.57111 11.25381,-86.1933 20.0721,-157.94188 19.5962,-159.4413 -0.47589,-1.49943 -0.2168,-2.72622 0.57578,-2.72622 0.79257,0 1.85666,4.43126 2.36463,9.84726 0.50797,5.41599 1.05258,11.10879 1.21025,12.65069 0.66166,6.4704 4.14657,3.65858 9.19019,-7.41515 5.83542,-12.81223 5.99918,-13.06664 7.46633,-11.59948 0.57854,0.57853 0.33929,1.50855 -0.53166,2.06669 -0.87095,0.55816 -5.6008,23.00703 -10.51076,49.8864 -4.90994,26.87936 -15.84409,86.61938 -24.2981,132.75561 -8.45399,46.13623 -17.35566,95.04427 -19.7815,108.68455 -4.61297,25.9384 -5.43739,29.58057 -5.62766,24.86206 z M 223.26309,615.42114 c -0.4959,-0.80237 -0.2064,-1.45885 0.64332,-1.45885 0.84973,0 1.54496,0.65648 1.54496,1.45885 0,0.80237 -0.2895,1.45885 -0.64333,1.45885 -0.35383,0 -1.04906,-0.65648 -1.54495,-1.45885 z"
       id="path3976"
       inkscape:connector-curvature="0" />
    <path
       transform="translate(117.85935,741.0944)"
       sodipodi:type="arc"
       style="fill:#f5b611;fill-opacity:1;stroke:none"
       id="path4064-1"
       sodipodi:cx="309.22104"
       sodipodi:cy="44.204075"
       sodipodi:rx="7.9287443"
       sodipodi:ry="7.9287443"
       d="m 317.14978,44.204075 a 7.9287443,7.9287443 0 1 1 -15.85749,0 7.9287443,7.9287443 0 1 1 15.85749,0 z" />
    <path
       transform="translate(136.00846,750.77886)"
       sodipodi:type="arc"
       style="fill:#f5b611;fill-opacity:1;stroke:none"
       id="path4064-7"
       sodipodi:cx="309.22104"
       sodipodi:cy="44.204075"
       sodipodi:rx="7.9287443"
       sodipodi:ry="7.9287443"
       d="m 317.14978,44.204075 a 7.9287443,7.9287443 0 1 1 -15.85749,0 7.9287443,7.9287443 0 1 1 15.85749,0 z" />
    <path
       transform="translate(108.67654,764.06107)"
       sodipodi:type="arc"
       style="fill:#f5b611;fill-opacity:1;stroke:none"
       id="path4064-4"
       sodipodi:cx="309.22104"
       sodipodi:cy="44.204075"
       sodipodi:rx="7.9287443"
       sodipodi:ry="7.9287443"
       d="m 317.14978,44.204075 a 7.9287443,7.9287443 0 1 1 -15.85749,0 7.9287443,7.9287443 0 1 1 15.85749,0 z" />
    <path
       transform="translate(127.65228,771.3926)"
       sodipodi:type="arc"
       style="fill:#f5b611;fill-opacity:1;stroke:none"
       id="path4064-0"
       sodipodi:cx="309.22104"
       sodipodi:cy="44.204075"
       sodipodi:rx="7.9287443"
       sodipodi:ry="7.9287443"
       d="m 317.14978,44.204075 a 7.9287443,7.9287443 0 1 1 -15.85749,0 7.9287443,7.9287443 0 1 1 15.85749,0 z" />
    <path
       transform="translate(99.619932,786.05568)"
       sodipodi:type="arc"
       style="fill:#f5b611;fill-opacity:1;stroke:none"
       id="path4064-9"
       sodipodi:cx="309.22104"
       sodipodi:cy="44.204075"
       sodipodi:rx="7.9287443"
       sodipodi:ry="7.9287443"
       d="m 317.14978,44.204075 a 7.9287443,7.9287443 0 1 1 -15.85749,0 7.9287443,7.9287443 0 1 1 15.85749,0 z" />
    <path
       transform="translate(119.02694,793.38722)"
       sodipodi:type="arc"
       style="fill:#f5b611;fill-opacity:1;stroke:none"
       id="path4064-48"
       sodipodi:cx="309.22104"
       sodipodi:cy="44.204075"
       sodipodi:rx="7.9287443"
       sodipodi:ry="7.9287443"
       d="m 317.14978,44.204075 a 7.9287443,7.9287443 0 1 1 -15.85749,0 7.9287443,7.9287443 0 1 1 15.85749,0 z" />
    <path
       transform="translate(90.132061,806.75649)"
       sodipodi:type="arc"
       style="fill:#f5b611;fill-opacity:1;stroke:none"
       id="path4064-8"
       sodipodi:cx="309.22104"
       sodipodi:cy="44.204075"
       sodipodi:rx="7.9287443"
       sodipodi:ry="7.9287443"
       d="m 317.14978,44.204075 a 7.9287443,7.9287443 0 1 1 -15.85749,0 7.9287443,7.9287443 0 1 1 15.85749,0 z" />
    <path
       transform="translate(108.67654,812.79423)"
       sodipodi:type="arc"
       style="fill:#f5b611;fill-opacity:1;stroke:none"
       id="path4064-2"
       sodipodi:cx="309.22104"
       sodipodi:cy="44.204075"
       sodipodi:rx="7.9287443"
       sodipodi:ry="7.9287443"
       d="m 317.14978,44.204075 a 7.9287443,7.9287443 0 1 1 -15.85749,0 7.9287443,7.9287443 0 1 1 15.85749,0 z" />
    <path
       transform="translate(-283.14767,703.51134)"
       sodipodi:type="arc"
       style="fill:#f5b611;fill-opacity:1;stroke:none"
       id="path4064"
       sodipodi:cx="309.22104"
       sodipodi:cy="44.204075"
       sodipodi:rx="7.9287443"
       sodipodi:ry="7.9287443"
       d="m 317.14978,44.204075 a 7.9287443,7.9287443 0 1 1 -15.85749,0 7.9287443,7.9287443 0 1 1 15.85749,0 z" />
    <path
       transform="translate(-262.25847,708.08562)"
       sodipodi:type="arc"
       style="fill:#f5b611;fill-opacity:1;stroke:none"
       id="path4064-45"
       sodipodi:cx="309.22104"
       sodipodi:cy="44.204075"
       sodipodi:rx="7.9287443"
       sodipodi:ry="7.9287443"
       d="m 317.14978,44.204075 a 7.9287443,7.9287443 0 1 1 -15.85749,0 7.9287443,7.9287443 0 1 1 15.85749,0 z" />
    <path
       transform="translate(-275.82883,722.7233)"
       sodipodi:type="arc"
       style="fill:#f5b611;fill-opacity:1;stroke:none"
       id="path4064-5"
       sodipodi:cx="309.22104"
       sodipodi:cy="44.204075"
       sodipodi:rx="7.9287443"
       sodipodi:ry="7.9287443"
       d="m 317.14978,44.204075 a 7.9287443,7.9287443 0 1 1 -15.85749,0 7.9287443,7.9287443 0 1 1 15.85749,0 z" />
    <path
       transform="translate(-254.02478,727.1451)"
       sodipodi:type="arc"
       style="fill:#f5b611;fill-opacity:1;stroke:none"
       id="path4064-17"
       sodipodi:cx="309.22104"
       sodipodi:cy="44.204075"
       sodipodi:rx="7.9287443"
       sodipodi:ry="7.9287443"
       d="m 317.14978,44.204075 a 7.9287443,7.9287443 0 1 1 -15.85749,0 7.9287443,7.9287443 0 1 1 15.85749,0 z" />
    <path
       transform="translate(-268.66246,741.32536)"
       sodipodi:type="arc"
       style="fill:#f5b611;fill-opacity:1;stroke:none"
       id="path4064-11"
       sodipodi:cx="309.22104"
       sodipodi:cy="44.204075"
       sodipodi:rx="7.9287443"
       sodipodi:ry="7.9287443"
       d="m 317.14978,44.204075 a 7.9287443,7.9287443 0 1 1 -15.85749,0 7.9287443,7.9287443 0 1 1 15.85749,0 z" />
    <path
       transform="translate(-246.70594,746.20459)"
       sodipodi:type="arc"
       style="fill:#f5b611;fill-opacity:1;stroke:none"
       id="path4064-52"
       sodipodi:cx="309.22104"
       sodipodi:cy="44.204075"
       sodipodi:rx="7.9287443"
       sodipodi:ry="7.9287443"
       d="m 317.14978,44.204075 a 7.9287443,7.9287443 0 1 1 -15.85749,0 7.9287443,7.9287443 0 1 1 15.85749,0 z" />
    <path
       transform="translate(-259.81886,760.68979)"
       sodipodi:type="arc"
       style="fill:#f5b611;fill-opacity:1;stroke:none"
       id="path4064-76"
       sodipodi:cx="309.22104"
       sodipodi:cy="44.204075"
       sodipodi:rx="7.9287443"
       sodipodi:ry="7.9287443"
       d="m 317.14978,44.204075 a 7.9287443,7.9287443 0 1 1 -15.85749,0 7.9287443,7.9287443 0 1 1 15.85749,0 z" />
    <path
       transform="translate(-240.91185,764.65416)"
       sodipodi:type="arc"
       style="fill:#f5b611;fill-opacity:1;stroke:none"
       id="path4064-14"
       sodipodi:cx="309.22104"
       sodipodi:cy="44.204075"
       sodipodi:rx="7.9287443"
       sodipodi:ry="7.9287443"
       d="m 317.14978,44.204075 a 7.9287443,7.9287443 0 1 1 -15.85749,0 7.9287443,7.9287443 0 1 1 15.85749,0 z" />
    <path
       transform="translate(-253.71982,779.13937)"
       sodipodi:type="arc"
       style="fill:#f5b611;fill-opacity:1;stroke:none"
       id="path4064-23"
       sodipodi:cx="309.22104"
       sodipodi:cy="44.204075"
       sodipodi:rx="7.9287443"
       sodipodi:ry="7.9287443"
       d="m 317.14978,44.204075 a 7.9287443,7.9287443 0 1 1 -15.85749,0 7.9287443,7.9287443 0 1 1 15.85749,0 z" />
    <path
       transform="translate(-231.76331,783.71365)"
       sodipodi:type="arc"
       style="fill:#f5b611;fill-opacity:1;stroke:none"
       id="path4064-22"
       sodipodi:cx="309.22104"
       sodipodi:cy="44.204075"
       sodipodi:rx="7.9287443"
       sodipodi:ry="7.9287443"
       d="m 317.14978,44.204075 a 7.9287443,7.9287443 0 1 1 -15.85749,0 7.9287443,7.9287443 0 1 1 15.85749,0 z" />
    <path
       transform="translate(-246.70594,797.284)"
       sodipodi:type="arc"
       style="fill:#f5b611;fill-opacity:1;stroke:none"
       id="path4064-16"
       sodipodi:cx="309.22104"
       sodipodi:cy="44.204075"
       sodipodi:rx="7.9287443"
       sodipodi:ry="7.9287443"
       d="m 317.14978,44.204075 a 7.9287443,7.9287443 0 1 1 -15.85749,0 7.9287443,7.9287443 0 1 1 15.85749,0 z" />
    <path
       transform="translate(-224.29198,802.46817)"
       sodipodi:type="arc"
       style="fill:#f5b611;fill-opacity:1;stroke:none"
       id="path4064-85"
       sodipodi:cx="309.22104"
       sodipodi:cy="44.204075"
       sodipodi:rx="7.9287443"
       sodipodi:ry="7.9287443"
       d="m 317.14978,44.204075 a 7.9287443,7.9287443 0 1 1 -15.85749,0 7.9287443,7.9287443 0 1 1 15.85749,0 z" />
    <path
       transform="translate(-238.7772,816.34348)"
       sodipodi:type="arc"
       style="fill:#f5b611;fill-opacity:1;stroke:none"
       id="path4064-761"
       sodipodi:cx="309.22104"
       sodipodi:cy="44.204075"
       sodipodi:rx="7.9287443"
       sodipodi:ry="7.9287443"
       d="m 317.14978,44.204075 a 7.9287443,7.9287443 0 1 1 -15.85749,0 7.9287443,7.9287443 0 1 1 15.85749,0 z" />
    <path
       transform="translate(-217.888,820.91776)"
       sodipodi:type="arc"
       style="fill:#f5b611;fill-opacity:1;stroke:none"
       id="path4064-89"
       sodipodi:cx="309.22104"
       sodipodi:cy="44.204075"
       sodipodi:rx="7.9287443"
       sodipodi:ry="7.9287443"
       d="m 317.14978,44.204075 a 7.9287443,7.9287443 0 1 1 -15.85749,0 7.9287443,7.9287443 0 1 1 15.85749,0 z" />
    <path
       transform="translate(-230.23855,834.4881)"
       sodipodi:type="arc"
       style="fill:#f5b611;fill-opacity:1;stroke:none"
       id="path4064-27"
       sodipodi:cx="309.22104"
       sodipodi:cy="44.204075"
       sodipodi:rx="7.9287443"
       sodipodi:ry="7.9287443"
       d="m 317.14978,44.204075 a 7.9287443,7.9287443 0 1 1 -15.85749,0 7.9287443,7.9287443 0 1 1 15.85749,0 z" />
    <path
       transform="translate(-209.34935,840.58714)"
       sodipodi:type="arc"
       style="fill:#f5b611;fill-opacity:1;stroke:none"
       id="path4064-95"
       sodipodi:cx="309.22104"
       sodipodi:cy="44.204075"
       sodipodi:rx="7.9287443"
       sodipodi:ry="7.9287443"
       d="m 317.14978,44.204075 a 7.9287443,7.9287443 0 1 1 -15.85749,0 7.9287443,7.9287443 0 1 1 15.85749,0 z" />
    <path
       transform="translate(-222.61476,853.54759)"
       sodipodi:type="arc"
       style="fill:#f5b611;fill-opacity:1;stroke:none"
       id="path4064-43"
       sodipodi:cx="309.22104"
       sodipodi:cy="44.204075"
       sodipodi:rx="7.9287443"
       sodipodi:ry="7.9287443"
       d="m 317.14978,44.204075 a 7.9287443,7.9287443 0 1 1 -15.85749,0 7.9287443,7.9287443 0 1 1 15.85749,0 z" />
    <path
       transform="translate(-215.75334,872.60707)"
       sodipodi:type="arc"
       style="fill:#f5b611;fill-opacity:1;stroke:none"
       id="path4064-12"
       sodipodi:cx="309.22104"
       sodipodi:cy="44.204075"
       sodipodi:rx="7.9287443"
       sodipodi:ry="7.9287443"
       d="m 317.14978,44.204075 a 7.9287443,7.9287443 0 1 1 -15.85749,0 7.9287443,7.9287443 0 1 1 15.85749,0 z" />
    <path
       transform="translate(-202.33546,859.49414)"
       sodipodi:type="arc"
       style="fill:#f5b611;fill-opacity:1;stroke:none"
       id="path4064-3"
       sodipodi:cx="309.22104"
       sodipodi:cy="44.204075"
       sodipodi:rx="7.9287443"
       sodipodi:ry="7.9287443"
       d="m 317.14978,44.204075 a 7.9287443,7.9287443 0 1 1 -15.85749,0 7.9287443,7.9287443 0 1 1 15.85749,0 z" />
    <path
       transform="translate(-195.01662,876.57144)"
       sodipodi:type="arc"
       style="fill:#f5b611;fill-opacity:1;stroke:none"
       id="path4064-34"
       sodipodi:cx="309.22104"
       sodipodi:cy="44.204075"
       sodipodi:rx="7.9287443"
       sodipodi:ry="7.9287443"
       d="m 317.14978,44.204075 a 7.9287443,7.9287443 0 1 1 -15.85749,0 7.9287443,7.9287443 0 1 1 15.85749,0 z" />
    <path
       transform="translate(-207.06221,891.66655)"
       sodipodi:type="arc"
       style="fill:#f5b611;fill-opacity:1;stroke:none"
       id="path4064-113"
       sodipodi:cx="309.22104"
       sodipodi:cy="44.204075"
       sodipodi:rx="7.9287443"
       sodipodi:ry="7.9287443"
       d="m 317.14978,44.204075 a 7.9287443,7.9287443 0 1 1 -15.85749,0 7.9287443,7.9287443 0 1 1 15.85749,0 z" />
  </g>
</svg>
