<?xml version="1.0" encoding="UTF-8" standalone="no"?>
<!-- Created with Inkscape (http://www.inkscape.org/) -->

<svg
   xmlns:dc="http://purl.org/dc/elements/1.1/"
   xmlns:cc="http://creativecommons.org/ns#"
   xmlns:rdf="http://www.w3.org/1999/02/22-rdf-syntax-ns#"
   xmlns:svg="http://www.w3.org/2000/svg"
   xmlns="http://www.w3.org/2000/svg"
   xmlns:sodipodi="http://sodipodi.sourceforge.net/DTD/sodipodi-0.dtd"
   xmlns:inkscape="http://www.inkscape.org/namespaces/inkscape"
   width="512"
   height="512"
   id="svg3861"
   version="1.1"
   inkscape:version="0.48.2 r9819"
   sodipodi:docname="music.svg">
  <defs
     id="defs3863" />
  <sodipodi:namedview
     id="base"
     pagecolor="#ffffff"
     bordercolor="#666666"
     borderopacity="1.0"
     inkscape:pageopacity="0.0"
     inkscape:pageshadow="2"
     inkscape:zoom="1"
     inkscape:cx="99.5"
     inkscape:cy="160"
     inkscape:document-units="px"
     inkscape:current-layer="layer1"
     showgrid="false"
     inkscape:window-width="1920"
     inkscape:window-height="1017"
     inkscape:window-x="-8"
     inkscape:window-y="-8"
     inkscape:window-maximized="1" />
  <metadata
     id="metadata3866">
    <rdf:RDF>
      <cc:Work
         rdf:about="">
        <dc:format>image/svg+xml</dc:format>
        <dc:type
           rdf:resource="http://purl.org/dc/dcmitype/StillImage" />
        <dc:title></dc:title>
      </cc:Work>
    </rdf:RDF>
  </metadata>
  <g
     inkscape:label="Layer 1"
     inkscape:groupmode="layer"
     id="layer1"
     transform="translate(0,-540.36218)">
    <g
       id="g2990"
       transform="matrix(1.2930256,0,0,1.2930256,-75.014556,-66.594081)">
      <path
         inkscape:connector-curvature="0"
         inkscape:export-ydpi="89.914543"
         inkscape:export-xdpi="89.914543"
         inkscape:export-filename="C:\Users\dhe.INSTAR\Desktop\music.png"
         id="path3884"
         d="m 237.8423,815.97363 c -29.09734,-3.99933 -57.53273,-17.69564 -78.51836,-37.81947 -8.40679,-8.06156 -18.87288,-20.29857 -18.87288,-22.06628 0,-0.39086 1.42408,-2.78072 3.16462,-5.31079 6.86313,-9.97634 6.79792,-9.23352 6.71153,-76.44962 l -0.0786,-61.16916 5.23114,-7.65605 c 19.3467,-28.31487 52.33825,-47.54072 88.47515,-51.55896 42.63448,-4.74073 88.42961,16.23508 112.56535,51.55896 l 5.23114,7.65605 -0.0786,61.16916 c -0.0864,67.2161 -0.1516,66.47328 6.71153,76.44962 1.74054,2.53007 3.16462,4.91993 3.16462,5.31079 0,1.76825 -10.46456,14.00255 -18.84379,22.03059 -19.39068,18.57798 -42.73666,30.72707 -69.74372,36.29416 -10.63031,2.19128 -34.52006,3.0178 -45.11911,1.561 z"
         style="fill:#000000" />
      <path
         inkscape:connector-curvature="0"
         inkscape:export-ydpi="89.914543"
         inkscape:export-xdpi="89.914543"
         inkscape:export-filename="C:\Users\dhe.INSTAR\Desktop\music.png"
         id="path3880"
         d="m 87.071387,744.67799 c -7.894575,-2.72782 -14.007369,-7.21905 -17.971931,-13.20444 -6.422518,-9.69624 -6.70269,-12.2383 -6.343606,-57.55714 l 0.325556,-41.08746 2.883018,-6.14774 c 3.672965,-7.83221 9.583195,-13.73206 17.380433,-17.3499 5.18423,-2.40543 8.07927,-2.91872 18.472063,-3.27513 l 12.32433,-0.42264 4.60602,-7.86138 c 18.12589,-30.93665 45.21665,-54.71001 77.25754,-67.79698 72.87052,-29.76367 155.61195,-2.10872 196.25923,65.59637 l 6.04117,10.06262 12.31429,0.42233 c 10.38225,0.35607 13.27883,0.86986 18.46201,3.27481 7.79724,3.61784 13.70747,9.51769 17.38043,17.3499 l 2.88303,6.14774 0,43.4684 0,43.46841 -2.87299,6.12583 c -3.59708,7.66974 -9.66406,13.70705 -17.48564,17.40012 -5.36839,2.53476 -7.66967,2.89783 -20.35862,3.21199 -13.16889,0.32604 -14.69969,0.15219 -19.25815,-2.18722 -3.60333,-1.84922 -5.62649,-3.87874 -7.42815,-7.45156 -2.46989,-4.89797 -2.47604,-5.04772 -2.47604,-60.28586 0,-45.84214 0.27425,-56.03209 1.59301,-59.18832 1.53496,-3.67366 1.45162,-4.06343 -2.28662,-10.6942 -18.92425,-33.56728 -51.36592,-57.86601 -90.34361,-67.66713 -10.76448,-2.70679 -13.73122,-2.98134 -32.21498,-2.98134 -18.48375,0 -21.45049,0.27455 -32.21497,2.98134 -38.97769,9.80112 -71.41936,34.09985 -90.34361,67.66713 -3.73824,6.63077 -3.82158,7.02054 -2.28662,10.6942 1.31876,3.15623 1.59301,13.34618 1.59301,59.18832 0,55.23814 -0.007,55.38789 -2.47604,60.28586 -3.93837,7.81002 -9.18073,9.87107 -24.99367,9.82632 -9.285893,-0.0263 -14.234803,-0.56718 -18.419893,-2.01325 z"
         style="fill:#f5b611;fill-opacity:1" />
    </g>
  </g>
</svg>
