<svg height="512pt" viewBox="0 0 512 512" width="512pt" xmlns="http://www.w3.org/2000/svg"><path d="m256 377c-28.949219 0-52.5 23.550781-52.5 52.5s23.550781 52.5 52.5 52.5 52.5-23.550781 52.5-52.5-23.550781-52.5-52.5-52.5zm0 90c-20.679688 0-37.5-16.820312-37.5-37.5s16.820312-37.5 37.5-37.5 37.5 16.820312 37.5 37.5-16.820312 37.5-37.5 37.5zm0 0"/><path d="m451.621094 90.378906c-3.570313-33.886718-32.308594-60.378906-67.121094-60.378906h-54.613281c-19.894531-19.371094-46.003907-30-73.886719-30s-53.992188 10.628906-73.886719 30h-54.613281c-34.8125 0-63.550781 26.492188-67.121094 60.378906-33.886718 3.570313-60.378906 32.308594-60.378906 67.121094v272c0 4.140625 3.359375 7.5 7.5 7.5h166.355469c3.804687 41.988281 39.183593 75 82.144531 75 45.492188 0 82.5-37.007812 82.5-82.5 0-13.5-3.28125-26.238281-9.054688-37.5h167.554688v30h-136c-4.140625 0-7.5 3.359375-7.5 7.5s3.359375 7.5 7.5 7.5h143.5c4.140625 0 7.5-3.359375 7.5-7.5v-272c0-34.8125-26.492188-63.550781-60.378906-67.121094zm-259.214844 286.621094h-117.40625v-15h133.652344c-6.058594 4.261719-11.53125 9.300781-16.246094 15zm-117.40625-30v-75h362v75zm332-90h-38.5v-84.5c0-4.140625-3.359375-7.5-7.5-7.5h-22.5v-7.5c0-4.140625-3.359375-7.5-7.5-7.5h-22.5v-7.5c0-4.140625-3.359375-7.5-7.5-7.5h-22.5v-7.5c0-4.140625-3.359375-7.5-7.5-7.5h-30c-4.140625 0-7.5 3.359375-7.5 7.5v7.5h-22.5c-4.140625 0-7.5 3.359375-7.5 7.5v7.5h-22.5c-4.140625 0-7.5 3.359375-7.5 7.5v7.5h-22.5c-4.140625 0-7.5 3.359375-7.5 7.5v84.5h-38.5v-152h302zm-68.5 0v-77h15v77zm-30 0v-92h15v92zm-30 0v-107h15v107zm-30 0v-122h15v122zm-30 0v-107h15v107zm-30 0v-92h15v92zm-30 0v-77h15v77zm-31-212h57.726562c2.03125 0 3.976563-.824219 5.390626-2.28125 17.300781-17.875 40.523437-27.71875 65.382812-27.71875s48.082031 9.84375 65.382812 27.71875c1.414063 1.457031 3.359376 2.28125 5.390626 2.28125h57.726562c28.949219 0 52.5 23.550781 52.5 52.5v159.5h-15v-159.5c0-4.140625-3.359375-7.5-7.5-7.5h-317c-4.140625 0-7.5 3.359375-7.5 7.5v159.5h-15v-159.5c0-28.949219 23.550781-52.5 52.5-52.5zm-67.5 60.542969v271.457031h-45v-219.5c0-26.402344 19.59375-48.304688 45-51.957031zm-45 286.457031h167.554688c-4.691407 9.148438-7.726563 19.277344-8.699219 30h-158.855469zm241 105c-37.21875 0-67.5-30.28125-67.5-67.5s30.28125-67.5 67.5-67.5 67.5 30.28125 67.5 67.5-30.28125 67.5-67.5 67.5zm47.347656-135h133.652344v15h-117.40625c-4.714844-5.699219-10.1875-10.738281-16.246094-15zm148.652344 15v-271.457031c25.40625 3.652343 45 25.554687 45 51.957031v219.5zm0 0"/><path d="m414.5 287h-317c-4.140625 0-7.5 3.359375-7.5 7.5v30c0 4.140625 3.359375 7.5 7.5 7.5h317c4.140625 0 7.5-3.359375 7.5-7.5v-30c0-4.140625-3.359375-7.5-7.5-7.5zm-226 15h15v15h-15zm-15 15h-15v-15h15zm45-15h15v15h-15zm30 0h15v15h-15zm30 0h15v15h-15zm30 0h15v15h-15zm30 0h15v15h-15zm-233.5 0h38.5v15h-38.5zm302 15h-38.5v-15h38.5zm0 0"/></svg>