<?xml version="1.0" encoding="UTF-8" standalone="no"?>
<!-- Created with Inkscape (http://www.inkscape.org/) -->

<svg
   xmlns:dc="http://purl.org/dc/elements/1.1/"
   xmlns:cc="http://creativecommons.org/ns#"
   xmlns:rdf="http://www.w3.org/1999/02/22-rdf-syntax-ns#"
   xmlns:svg="http://www.w3.org/2000/svg"
   xmlns="http://www.w3.org/2000/svg"
   xmlns:sodipodi="http://sodipodi.sourceforge.net/DTD/sodipodi-0.dtd"
   xmlns:inkscape="http://www.inkscape.org/namespaces/inkscape"
   width="512"
   height="512"
   id="svg2"
   version="1.1"
   inkscape:version="0.48.2 r9819"
   sodipodi:docname="tv.svg">
  <defs
     id="defs4" />
  <sodipodi:namedview
     id="base"
     pagecolor="#ffffff"
     bordercolor="#666666"
     borderopacity="1.0"
     inkscape:pageopacity="0.0"
     inkscape:pageshadow="2"
     inkscape:zoom="0.81980192"
     inkscape:cx="260.00997"
     inkscape:cy="103.09456"
     inkscape:document-units="px"
     inkscape:current-layer="layer1"
     showgrid="false"
     inkscape:window-width="1920"
     inkscape:window-height="1017"
     inkscape:window-x="-8"
     inkscape:window-y="-8"
     inkscape:window-maximized="1" />
  <metadata
     id="metadata7">
    <rdf:RDF>
      <cc:Work
         rdf:about="">
        <dc:format>image/svg+xml</dc:format>
        <dc:type
           rdf:resource="http://purl.org/dc/dcmitype/StillImage" />
        <dc:title></dc:title>
      </cc:Work>
    </rdf:RDF>
  </metadata>
  <g
     inkscape:label="Layer 1"
     inkscape:groupmode="layer"
     id="layer1"
     transform="translate(0,-540.36218)">
    <path
       style="fill:#f5b611;fill-opacity:1"
       d="m 194.93849,1026.3938 c -20.45251,-5.346 -30.31875,-21.3798 -25.58114,-41.57246 7.1257,-30.37106 42.97172,-57.42098 76.80578,-57.95871 l 9.72463,-0.15455 0.27537,-89.57824 0.27536,-89.57824 2.69355,-3.53103 c 1.48146,-1.94207 4.18146,-4.19924 6,-5.01593 1.81855,-0.8167 47.18632,-10.8503 100.81727,-22.29689 75.64243,-16.14457 98.34278,-20.65592 101.22056,-20.11604 4.57178,0.85767 9.58983,4.94422 11.40459,9.28756 1.12421,2.69061 1.36403,22.76176 1.36403,114.1602 0,69.18691 -0.37377,112.92153 -0.99377,116.28212 -1.42882,7.74456 -7.95245,20.32712 -14.68889,28.33145 -12.85251,15.2715 -33.31578,26.88445 -53.751,30.50405 -20.80849,3.6856 -39.92333,-3.7478 -47.02838,-18.28845 -15.93732,-32.61624 28.38741,-81.2714 74.70725,-82.00601 l 9.7452,-0.15455 0.005,-70.75 c 0.003,-38.9125 -0.25687,-70.75 -0.57668,-70.75 -0.837,0 -155.57375,33.95401 -157.66853,34.59734 -1.6492,0.50648 -1.75,5.5658 -1.75,87.83356 0,53.55251 -0.38413,89.37826 -0.99377,92.68266 -0.54658,2.9625 -2.76628,8.9938 -4.93267,13.4028 -15.25238,31.04096 -57.09345,52.50566 -87.07376,44.66936 z"
       id="path3831" />
    <path
       style="fill:#000000"
       d="m 67.857295,946.37481 c -16.9034,-4.41254 -30.68831,-18.65182 -34.40621,-35.54027 -1.39509,-6.33717 -1.53804,-24.57029 -1.29072,-164.62646 l 0.27812,-157.5 2.61981,-5.58648 c 3.33006,-7.101 8.69271,-12.46365 15.79371,-15.79371 l 5.58648,-2.61981 68.000005,0 68,0 7.5,2.33889 c 12.63767,3.94107 17.17799,7.22718 37.5,27.14106 20.65631,20.24147 24.44615,23.47205 32,27.27787 12.34169,6.21806 11.2571,6.11272 69,6.70164 l 53,0.54054 5.58648,2.61981 c 7.11475,3.33651 12.4762,8.70598 15.77013,15.79371 2.22331,4.784 2.65068,7.27433 2.97515,17.33648 l 0.37889,11.75 -16.10532,0 -16.10533,0 0,-7.93376 0,-7.93376 -50.25,-0.38884 c -56.74088,-0.43906 -58.10722,-0.59729 -75.48702,-8.74174 -12.70765,-5.95501 -19.86526,-11.60458 -41.35749,-32.64389 -17.75845,-17.38422 -20.1062,-19.34013 -24.93634,-20.77453 -4.61148,-1.36946 -13.62097,-1.58348 -66.66,-1.58348 l -61.327845,0 0.25935,154.92679 c 0.25898,154.71475 0.26216,154.93056 2.32113,157.68821 3.91799,5.2475 7.11408,6.885 13.43821,6.885 6.3239,0 9.51976,-1.63728 13.43821,-6.88457 2.03989,-2.73166 2.0671,-3.76659 2.56179,-97.43821 l 0.5,-94.67722 2.619822,-5.58648 c 3.330053,-7.101 8.692703,-12.46365 15.793703,-15.7937 l 5.58648,-2.61982 140.5,-0.17639 140.5,-0.17639 -68.90383,14.84928 c -37.8971,8.1671 -70.82238,15.58198 -73.16728,16.47751 -6.19005,2.364 -12.88857,8.7255 -16.12274,15.31155 l -2.80615,5.71444 -0.5,83 -0.5,83 -3,0.31719 c -18.75721,1.9832 -43.75266,14.72812 -59.5383,30.35798 l -6.89285,6.82483 -47.78443,-0.0576 c -41.825685,-0.0504 -48.605105,-0.27188 -54.365615,-1.77562 z"
       id="path3829" />
    <path
       style="fill:#000000"
       d="m 303.93849,874.72713 0,-73.48095 2.25,-0.54135 c 1.2375,-0.29774 29.01204,-6.39772 61.72121,-13.55552 32.70916,-7.15779 60.50067,-13.27254 61.7589,-13.58834 l 2.28768,-0.57417 -0.25889,52.86064 -0.2589,52.86064 -3,0.31719 c -7.0034,0.74047 -19.63809,4.62599 -28.23356,8.68262 -23.48324,11.08289 -42.62045,29.83139 -51.36136,50.31815 -1.56803,3.67512 -2.86315,7.46954 -2.87803,8.43204 -0.0249,1.61025 -1.70402,1.75 -21.02705,1.75 l -21,0 0,-73.48095 z"
       id="path3825" />
  </g>
</svg>
