<?xml version="1.0" encoding="UTF-8" standalone="no"?>
<!-- Created with Inkscape (http://www.inkscape.org/) -->

<svg
   xmlns:dc="http://purl.org/dc/elements/1.1/"
   xmlns:cc="http://creativecommons.org/ns#"
   xmlns:rdf="http://www.w3.org/1999/02/22-rdf-syntax-ns#"
   xmlns:svg="http://www.w3.org/2000/svg"
   xmlns="http://www.w3.org/2000/svg"
   xmlns:sodipodi="http://sodipodi.sourceforge.net/DTD/sodipodi-0.dtd"
   xmlns:inkscape="http://www.inkscape.org/namespaces/inkscape"
   width="512"
   height="512"
   id="svg2"
   version="1.1"
   inkscape:version="0.48.2 r9819"
   sodipodi:docname="folder-music.svg">
  <defs
     id="defs4" />
  <sodipodi:namedview
     id="base"
     pagecolor="#ffffff"
     bordercolor="#666666"
     borderopacity="1.0"
     inkscape:pageopacity="0.0"
     inkscape:pageshadow="2"
     inkscape:zoom="0.81980192"
     inkscape:cx="260.00997"
     inkscape:cy="103.09456"
     inkscape:document-units="px"
     inkscape:current-layer="layer1"
     showgrid="false"
     inkscape:window-width="1920"
     inkscape:window-height="1017"
     inkscape:window-x="-8"
     inkscape:window-y="-8"
     inkscape:window-maximized="1" />
  <metadata
     id="metadata7">
    <rdf:RDF>
      <cc:Work
         rdf:about="">
        <dc:format>image/svg+xml</dc:format>
        <dc:type
           rdf:resource="http://purl.org/dc/dcmitype/StillImage" />
        <dc:title></dc:title>
      </cc:Work>
    </rdf:RDF>
  </metadata>
  <g
     inkscape:label="Layer 1"
     inkscape:groupmode="layer"
     id="layer1"
     transform="translate(0,-540.36218)">
    <path
       style="fill:#f5b611;fill-opacity:1"
       d="m 128.15125,980.49728 0,-39.20681 -14.75,14.62061 c -16.256407,16.1139 -18.325897,17.2674 -26.596457,14.8252 -5.82715,-1.7208 -19.965042,-15.8587 -21.685783,-21.68581 -2.737574,-9.27057 -3.982069,-7.68385 42.76402,-54.52387 l 42.59183,-42.67741 0.10436,-8.82259 c 0.13741,-11.61604 2.24461,-16.16062 12.27006,-26.46272 l 7.71795,-7.93093 28.28357,28.27051 28.28357,28.27052 -7.24156,7.3048 c -9.98017,10.06733 -15.53704,12.69819 -27.06432,12.81343 l -8.82275,0.0882 -11.92725,11.89618 -11.92724,11.89616 0,55.26563 0,55.26562 -16,0 -16,0 0,-39.20672 z"
       id="path3852" />
    <path
       style="fill:#000000"
       d="m 266.65125,1019.1185 c -31.96335,-2.4091 -55.65416,-5.7807 -74,-10.5315 -6.6,-1.7092 -13.0125,-3.3345 -14.25,-3.6118 l -2.25,-0.5043 0,-44.15852 0,-44.15843 7.27352,-7.22497 c 7.12679,-7.07923 7.37682,-7.22497 12.39466,-7.22497 7.10678,0 17.04196,-3.28848 23.98175,-7.9378 6.36396,-4.26355 44.94551,-42.68857 47.75594,-47.5622 l 1.72999,-3 18.68207,-4.2e-4 c 14.24046,-3.2e-4 20.70292,-0.43121 27.18207,-1.81238 13.15481,-2.80422 28.46066,-8.26061 39.83553,-14.20098 l 10.35893,-5.40981 19.15277,14.30042 c 30.25156,22.58732 41.31476,34.08568 50.15055,52.12317 8.06821,16.47054 11.78458,34.22411 13.08318,62.5 0.4393,9.56537 0.28797,15.88137 -0.44468,18.55917 -6.43342,23.5137 -47.59251,40.71562 -114.79568,47.97742 -13.36832,1.4445 -55.60626,2.6492 -65.8406,1.8779 z"
       id="path3850" />
    <path
       style="fill:#f5b611;fill-opacity:1"
       d="m 210.34457,825.43288 -28.30667,-28.35521 7.80819,-7.4599 c 10.31796,-9.85772 15.36914,-12.27137 25.80516,-12.33071 11.76929,-0.0669 15.83144,2.08764 28.72758,15.23705 12.36586,12.6087 14.31764,16.48432 14.19158,28.1799 -0.10732,9.9571 -2.71423,15.27871 -12.38989,25.29204 l -7.52927,7.79204 -28.30668,-28.35521 z"
       id="path3848" />
    <path
       style="fill:#000000"
       d="m 276.90125,827.08725 c -1.43735,-0.43522 -1.75212,-1.72272 -1.76187,-7.20656 -0.027,-15.17196 -4.91292,-24.77711 -20.31313,-39.93306 -15.96387,-15.71067 -25.57295,-20.04805 -42.06135,-18.98581 -9.38416,0.60455 -16.77886,3.14609 -24.37456,8.37744 -6.28583,4.32922 -5.49293,4.91276 -13.09202,-9.63525 -10.54484,-20.18747 -14.55177,-36.5712 -14.55177,-59.5 0,-27.12576 6.58131,-48.83442 21.67632,-71.5 7.08378,-10.63649 26.25775,-29.21053 37.00876,-35.8508 42.81409,-26.44377 94.62515,-26.44377 137.43924,0 10.75101,6.64027 29.92498,25.21431 37.00876,35.8508 14.95475,22.45498 21.62708,44.28875 21.69738,71 0.0436,16.56991 -1.26212,25.21122 -6.01065,39.77862 -14.37068,44.08595 -50.78958,76.30224 -96.88388,85.70383 -7.91191,1.61375 -32.42808,2.91611 -35.78123,1.90079 z"
       id="path3844" />
  </g>
</svg>
