<?xml version="1.0" encoding="UTF-8" standalone="no"?>
<!-- Created with Inkscape (http://www.inkscape.org/) -->

<svg
   xmlns:dc="http://purl.org/dc/elements/1.1/"
   xmlns:cc="http://creativecommons.org/ns#"
   xmlns:rdf="http://www.w3.org/1999/02/22-rdf-syntax-ns#"
   xmlns:svg="http://www.w3.org/2000/svg"
   xmlns="http://www.w3.org/2000/svg"
   xmlns:sodipodi="http://sodipodi.sourceforge.net/DTD/sodipodi-0.dtd"
   xmlns:inkscape="http://www.inkscape.org/namespaces/inkscape"
   width="512"
   height="512"
   id="svg2"
   version="1.1"
   inkscape:version="0.48.2 r9819"
   sodipodi:docname="New document 1">
  <defs
     id="defs4" />
  <sodipodi:namedview
     id="base"
     pagecolor="#ffffff"
     bordercolor="#666666"
     borderopacity="1.0"
     inkscape:pageopacity="0.0"
     inkscape:pageshadow="2"
     inkscape:zoom="0.81980192"
     inkscape:cx="260.00997"
     inkscape:cy="103.09456"
     inkscape:document-units="px"
     inkscape:current-layer="layer1"
     showgrid="false"
     inkscape:window-width="1920"
     inkscape:window-height="1017"
     inkscape:window-x="-8"
     inkscape:window-y="-8"
     inkscape:window-maximized="1" />
  <metadata
     id="metadata7">
    <rdf:RDF>
      <cc:Work
         rdf:about="">
        <dc:format>image/svg+xml</dc:format>
        <dc:type
           rdf:resource="http://purl.org/dc/dcmitype/StillImage" />
        <dc:title></dc:title>
      </cc:Work>
    </rdf:RDF>
  </metadata>
  <g
     inkscape:label="Layer 1"
     inkscape:groupmode="layer"
     id="layer1"
     transform="translate(0,-540.36218)">
    <path
       style="fill:#000000"
       d="m 83.062218,1040.605 c -3.71812,-1.8004 -4.60989,-5.5325 -4.60989,-19.2927 l 0,-13.0344 -4.49662,-0.6743 c -11.13563,-1.6699 -21.04556,-9.14797 -26.02128,-19.63576 l -2.75634,-5.80978 0,-126.23087 0,-126.23086 2.76737,-5.90114 c 3.51763,-7.50096 9.18233,-13.16567 16.6833,-16.68328 l 5.90113,-2.76738 54.664832,-0.30026 c 53.83569,-0.29571 54.66483,-0.33227 54.66483,-2.41006 0,-1.16039 0.98396,-5.03062 2.18658,-8.60053 l 2.18657,-6.49074 -50.82044,-50.82854 C 85.269968,587.56445 82.413148,584.90518 79.201668,585.25248 c -5.46405,0.59092 -12.45775,-3.62679 -15.27381,-9.21121 -2.98911,-5.9276 -2.98911,-8.94146 0,-14.86907 1.73627,-3.44314 3.6468,-5.35366 7.08994,-7.08993 5.9276,-2.98911 8.94147,-2.98911 14.86907,0 5.58442,2.81606 9.802121,9.80975 9.211211,15.2738 -0.3473,3.21149 2.31196,6.06831 50.461921,54.21059 l 50.82854,50.82044 6.49074,-2.18657 c 3.5699,-1.20262 8.32084,-2.18657 10.55763,-2.18657 6.01873,0 14.15083,2.73338 19.88159,6.68264 l 5.06466,3.49023 97.10386,-55.52596 97.10385,-55.52597 2.04186,-5.51938 c 3.3442,-9.03977 11.50252,-13.48583 20.04793,-10.92556 15.51388,4.64807 16.38772,25.5688 1.30853,31.3276 -4.14259,1.58207 -5.54,1.66272 -9.81692,0.56657 l -4.98679,-1.27807 -96.59648,55.13151 c -53.12805,30.32232 -96.97093,55.45863 -97.4286,55.85846 -0.45768,0.39984 -0.51743,2.69501 -0.1328,5.10037 l 0.69934,4.3734 88.33594,0.28736 88.33596,0.28737 5.90114,2.76738 c 7.50096,3.51761 13.16567,9.18232 16.68328,16.68328 l 2.76738,5.90114 0,126.23086 0,126.23087 -2.76738,5.90114 c -4.87145,10.38789 -14.82495,17.8671 -26.01023,19.5444 l -4.49663,0.6743 0,13.0344 c 0,14.0482 -0.88125,17.5153 -4.91964,19.3553 -1.72751,0.7871 -14.55537,1.1728 -39.00531,1.1728 l -36.43126,0 -2.17157,-2.3767 c -1.19437,-1.3072 -3.19761,-3.9967 -4.45164,-5.9767 -1.25403,-1.98 -3.62212,-4.5945 -5.26241,-5.8098 -2.95917,-2.1926 -3.55593,-2.2098 -76.7702,-2.2098 -73.21427,0 -73.81103,0.017 -76.7702,2.2098 -1.64029,1.2153 -4.00839,3.8298 -5.26241,5.8098 -1.25404,1.98 -3.25728,4.6695 -4.45164,5.9767 l -2.17157,2.3767 -36.74506,-0.072 c -22.998321,-0.045 -37.589122,-0.4802 -39.001272,-1.1639 z"
       id="path3812" />
    <path
       style="fill:#ffffff;stroke:#000000;stroke-opacity:1;fill-opacity:1"
       d="m 256.97129,990.08133 c 28.65806,-2.44742 45.94597,-6.47408 62.32319,-14.51619 8.17704,-4.01537 11.60892,-6.50161 18.53514,-13.42782 6.95348,-6.95349 9.39165,-10.32589 13.40041,-18.53513 10.57403,-21.65372 14.541,-45.57256 14.541,-87.675 0,-42.10244 -3.96697,-66.02127 -14.541,-87.67499 -4.00876,-8.20924 -6.44693,-11.58164 -13.40041,-18.53514 -21.53388,-21.53387 -53.41802,-28.97532 -124.16766,-28.97956 -55.48734,-0.003 -81.86364,3.87994 -105.63252,15.55175 -8.177031,4.01536 -11.608921,6.50161 -18.535142,13.42781 -6.95348,6.9535 -9.39165,10.3259 -13.40041,18.53514 -10.57403,21.65372 -14.541,45.57255 -14.541,87.67499 0,42.10244 3.96697,66.02128 14.541,87.675 4.00876,8.20924 6.44693,11.58164 13.40041,18.53513 6.926221,6.92621 10.358111,9.41245 18.535142,13.42782 15.89978,7.80766 33.85121,12.10232 60.21054,14.40464 14.41653,1.2592 74.40974,1.33462 88.73131,0.11155 z"
       id="path3810" />
    <path
       style="fill:#f5b611;fill-opacity:1"
       d="m 173.91371,973.13361 c -26.40406,-1.77731 -49.9651,-7.50777 -62.62406,-15.23126 -14.906061,-9.0945 -23.472082,-23.76255 -28.521962,-48.83958 -5.65128,-28.06353 -5.65128,-78.20762 0,-106.27115 2.44202,-12.12676 6.85386,-24.76246 10.966041,-31.40721 15.200061,-24.56137 47.807111,-33.73296 119.928231,-33.73296 64.22214,0 97.05335,7.41059 113.73789,25.67265 14.34118,15.69714 21.47174,46.43053 21.47174,92.54533 0,38.20725 -5.53541,68.85231 -15.2814,84.60055 -15.42288,24.92141 -48.54593,33.99983 -122.56904,33.59394 -13.9435,-0.0765 -30.64184,-0.4951 -37.10744,-0.93031 z"
       id="path3808" />
    <path
       style="fill:#ffffff"
       d="m 406.26048,938.99235 c 10.85334,-4.5348 13.49916,-18.76361 5.05857,-27.2042 -11.86792,-11.86791 -31.31556,-1.23788 -28.19242,15.4099 1.86567,9.9449 13.43875,15.84518 23.13385,11.7943 z"
       id="path3806" />
    <path
       style="fill:#ffffff"
       d="m 406.26048,871.38754 c 10.85334,-4.53481 13.49916,-18.76361 5.05857,-27.2042 -11.86792,-11.86791 -31.31556,-1.23789 -28.19242,15.40989 1.86567,9.9449 13.43875,15.84519 23.13385,11.79431 z"
       id="path3804" />
    <path
       style="fill:#ffffff;fill-opacity:1"
       d="m 408.79658,802.42696 c 5.41872,-4.04566 7.15166,-7.46337 7.15166,-14.10458 0,-6.68041 -1.7298,-10.05657 -7.27293,-14.19512 -4.1123,-3.07028 -14.10231,-3.05285 -18.2655,0.0319 -5.69973,4.22322 -7.97402,8.78663 -7.47528,14.99931 0.50085,6.23912 2.75249,9.98384 8.28719,13.78251 2.95744,2.0298 4.59769,2.39074 9.18953,2.02211 3.32423,-0.26686 6.72258,-1.29466 8.38533,-2.53608 z"
       id="path2996" />
  </g>
</svg>
