<?xml version="1.0" encoding="UTF-8" standalone="no"?>
<!-- Created with Inkscape (http://www.inkscape.org/) -->

<svg
   xmlns:dc="http://purl.org/dc/elements/1.1/"
   xmlns:cc="http://creativecommons.org/ns#"
   xmlns:rdf="http://www.w3.org/1999/02/22-rdf-syntax-ns#"
   xmlns:svg="http://www.w3.org/2000/svg"
   xmlns="http://www.w3.org/2000/svg"
   xmlns:sodipodi="http://sodipodi.sourceforge.net/DTD/sodipodi-0.dtd"
   xmlns:inkscape="http://www.inkscape.org/namespaces/inkscape"
   width="512"
   height="512"
   id="svg3066"
   version="1.1"
   inkscape:version="0.48.2 r9819"
   sodipodi:docname="microphone.svg"
   inkscape:export-filename="C:\Users\dhe.INSTAR\Desktop\microphone.png"
   inkscape:export-xdpi="9.6099997"
   inkscape:export-ydpi="9.6099997">
  <defs
     id="defs3068" />
  <sodipodi:namedview
     id="base"
     pagecolor="#ffffff"
     bordercolor="#666666"
     borderopacity="1.0"
     inkscape:pageopacity="0.0"
     inkscape:pageshadow="2"
     inkscape:zoom="1"
     inkscape:cx="99.5"
     inkscape:cy="240"
     inkscape:document-units="px"
     inkscape:current-layer="layer1"
     showgrid="false"
     inkscape:window-width="1920"
     inkscape:window-height="1017"
     inkscape:window-x="-8"
     inkscape:window-y="-8"
     inkscape:window-maximized="1" />
  <metadata
     id="metadata3071">
    <rdf:RDF>
      <cc:Work
         rdf:about="">
        <dc:format>image/svg+xml</dc:format>
        <dc:type
           rdf:resource="http://purl.org/dc/dcmitype/StillImage" />
        <dc:title />
      </cc:Work>
    </rdf:RDF>
  </metadata>
  <g
     inkscape:label="Layer 1"
     inkscape:groupmode="layer"
     id="layer1"
     transform="translate(0,-540.36218)">
    <g
       id="g3081"
       inkscape:export-filename="C:\Users\dhe.INSTAR\Desktop\microphone.png"
       inkscape:export-xdpi="89.971855"
       inkscape:export-ydpi="89.971855"
       transform="matrix(1.138596,0,0,1.138596,-35.480577,-110.37261)">
      <g
         id="g3084">
        <path
           style="fill:#000000"
           d="m 272.34798,1013.9731 c -6.02439,-3.2263 -8.33534,-7.6461 -7.85477,-15.02286 l 0.3726,-5.7192 14.98861,-15.2808 c 16.88892,-17.21814 19.39712,-21.17295 20.15614,-31.78125 1.18514,-16.56391 -9.61751,-30.66279 -26.03795,-33.98297 -6.00808,-1.21482 -8.85722,-0.93468 -17.22997,1.69409 -4.51356,1.41711 -8.35643,4.8883 -39.5,35.67959 -23.31636,23.05261 -36.33651,35.18623 -40.1654,37.43054 -19.29599,11.31039 -42.0227,12.03114 -62.64523,1.98671 -9.69249,-4.72084 -22.493941,-17.72463 -27.501911,-27.9366 -11.27067,-22.98253 -7.73999,-51.7289 8.63967,-70.34311 l 4.29294,-4.8786 2.140791,3.46387 c 2.4563,3.97438 14.61905,15.97091 18.03002,17.78361 l 2.29088,1.21745 -2.69605,3.19294 c -4.95193,5.86459 -7.36521,12.49487 -7.37594,20.2648 -0.0144,10.41311 2.17851,15.77365 9.41162,23.00675 4.26525,4.26526 7.54876,6.57722 11.00675,7.75 6.89179,2.33737 16.22054,2.14555 23.28435,-0.47876 5.32743,-1.97923 8.56982,-4.90488 40.78751,-36.80318 32.38096,-32.05996 35.56122,-34.92651 42.5,-38.30766 9.63015,-4.69261 18.33921,-6.70573 29.09004,-6.72423 16.78052,-0.0289 31.17605,5.58716 43.09884,16.81386 8.5981,8.09611 13.42743,15.42523 17.21584,26.12719 2.728,7.70639 3.02332,9.7208 3.01183,20.54417 -0.0112,10.51194 -0.35692,12.99085 -2.78828,19.9904 -1.52654,4.39472 -4.31228,10.52016 -6.19052,13.61208 -3.87235,6.37456 -27.12762,31.02457 -33.31325,35.31127 -5.68063,3.9367 -11.39243,4.4031 -17.01916,1.3899 z"
           id="path3091"
           inkscape:connector-curvature="0" />
        <path
           style="fill:#000000"
           d="m 140.63388,899.74976 c -12.49727,-3.91122 -28.58117,-20.40378 -32.41037,-33.23385 -2.5598,-8.57683 -4.6456,-5.78034 61.20559,-82.05959 33.61032,-38.93278 61.40663,-70.90807 61.76958,-71.0562 0.36295,-0.14812 1.65129,2.12254 2.86296,5.04594 3.87369,9.34597 13.58669,23.39869 23.05174,32.85265 9.42507,9.41402 23.47862,19.15677 32.74077,22.916 2.96367,1.20286 5.36693,2.47226 5.34055,2.82088 -0.0821,1.08511 -138.94058,120.53337 -142.27115,122.38386 -3.66334,2.03538 -6.59021,2.11404 -12.28967,0.33031 z"
           id="path3089"
           inkscape:connector-curvature="0" />
        <path
           style="fill:#f5b611;fill-opacity:1"
           d="m 323.0566,767.16151 c -20.47926,-4.35113 -44.16557,-18.34382 -55.87891,-28.67996 -11.71334,-10.33614 -12.41474,-14.94593 -17.43256,-25.53864 -6.61765,-13.97 -8.87842,-24.35242 -8.87842,-40.77346 0,-16.42104 2.26077,-26.80346 8.87842,-40.77346 9.87146,-20.83885 24.8743,-35.84742 45.69086,-45.70832 14.00307,-6.63332 24.37584,-8.89415 40.80665,-8.89415 16.43081,0 26.80358,2.26083 40.80665,8.89415 20.81656,9.8609 35.8194,24.86947 45.69086,45.70832 6.61765,13.97 8.87842,24.35242 8.87842,40.77346 0,16.43081 -2.26083,26.80358 -8.89415,40.80665 -7.17147,15.13912 -17.54649,27.62769 -31.14827,37.49361 -7.53259,5.4637 -22.66379,12.32628 -32.37706,14.68424 -9.67042,2.34755 -24.33988,4.5152 -36.14249,2.00756 z"
           id="path3053"
           inkscape:connector-curvature="0" />
      </g>
    </g>
  </g>
</svg>
